HIERARCHY
ROOT Hips
{
	OFFSET 0.000000 0.000000 0.000000 
	CHANNELS 6 Xposition Yposition Zposition Zrotation Yrotation Xrotation
	JOINT LeftUpLeg
	{
		OFFSET 1.363060 -1.794630 0.839290 
		CHANNELS 3 Zrotation Yrotation Xrotation
		JOINT LeftLeg
		{
			OFFSET 2.448110 -6.726130 0.000000 
			CHANNELS 3 Zrotation Yrotation Xrotation
			JOINT LeftFoot
			{
				OFFSET 2.562200 -7.039590 0.000000 
				CHANNELS 3 Zrotation Yrotation Xrotation
				JOINT LeftToeBase
				{
					OFFSET 0.157640 -0.433110 2.322550 
					CHANNELS 3 Zrotation Yrotation Xrotation
					End Site
					{
						OFFSET 0.000000 0.000000 0.000000 
					}
				}
			}
		}
	}
	JOINT RightUpLeg
	{
		OFFSET -1.305520 -1.794630 0.839290 
		CHANNELS 3 Zrotation Yrotation Xrotation
		JOINT RightLeg
		{
			OFFSET -2.542530 -6.985550 0.000000 
			CHANNELS 3 Zrotation Yrotation Xrotation
			JOINT RightFoot
			{
				OFFSET -2.568260 -7.056230 0.000000 
				CHANNELS 3 Zrotation Yrotation Xrotation
				JOINT RightToeBase
				{
					OFFSET -0.164730 -0.452590 2.363150 
					CHANNELS 3 Zrotation Yrotation Xrotation
					End Site
					{
						OFFSET 0.000000 0.000000 0.000000 
					}
				}
			}
		}
	}
	JOINT Spine
	{
		OFFSET 0.028270 2.035590 -0.193380 
		CHANNELS 3 Zrotation Yrotation Xrotation
		JOINT Spine1
		{
			OFFSET 0.056720 2.048850 -0.042750 
			CHANNELS 3 Zrotation Yrotation Xrotation
			JOINT Neck1
			{
				OFFSET -0.054170 1.746240 0.172020 
				CHANNELS 3 Zrotation Yrotation Xrotation
				JOINT Head
				{
					OFFSET 0.104070 1.761360 -0.123970 
					CHANNELS 3 Zrotation Yrotation Xrotation
					End Site
					{
						OFFSET 0.000000 0.000000 0.000000 
					}
				}
			}
			JOINT LeftArm
			{
				OFFSET 3.362410 1.200890 -0.311210 
				CHANNELS 3 Zrotation Yrotation Xrotation
				JOINT LeftForeArm
				{
					OFFSET 4.983000 -0.000000 -0.000000 
					CHANNELS 3 Zrotation Yrotation Xrotation
					JOINT LeftHand
					{
						OFFSET 3.483560 -0.000000 -0.000000 
						CHANNELS 3 Zrotation Yrotation Xrotation
						JOINT LeftHandIndex1
						{
							OFFSET 0.715260 -0.000000 -0.000000 
							CHANNELS 3 Zrotation Yrotation Xrotation
							End Site
							{
								OFFSET 0.000000 0.000000 0.000000 
							}
						}
					}
				}
			}
			JOINT RightArm
			{
				OFFSET -3.136600 1.374050 -0.404650 
				CHANNELS 3 Zrotation Yrotation Xrotation
				JOINT RightForeArm
				{
					OFFSET -5.241900 -0.000000 -0.000000 
					CHANNELS 3 Zrotation Yrotation Xrotation
					JOINT RightHand
					{
						OFFSET -3.444170 -0.000000 -0.000000 
						CHANNELS 3 Zrotation Yrotation Xrotation
						JOINT RightHandIndex1
						{
							OFFSET -0.622530 -0.000000 -0.000000 
							CHANNELS 3 Zrotation Yrotation Xrotation
							End Site
							{
								OFFSET 0.000000 0.000000 0.000000 
							}
						}
					}
				}
			}
		}
	}
}
MOTION
Frames: 9
Frame Time: 0.041667
9.881742 15.278324 33.274622 179.912685 1.148906 -132.996044 -7.623449 -25.568445 -70.003423 11.263180 24.491068 68.876543 1.648317 -18.558952 -36.214543 0.468300 -4.389200 -12.174400 10.004580 31.883156 -70.247429 -9.621689 -25.030839 65.114425 -5.902022 -0.289886 -47.815038 -3.059400 10.790600 -31.577000 0.986947 0.337291 -5.639045 -0.454729 0.190504 4.269993 8.879958 -2.918126 -10.390067 0.547000 -3.288000 -5.317000 -96.879006 -4.039124 27.146162 13.619092 -16.260609 -2.584433 -1.628351 0.957821 3.061177 -7.125000 0.000000 0.000000 95.320316 -0.979969 16.785871 -15.882937 26.813011 -4.989991 1.018747 3.512618 0.849775 7.125000 0.000000 0.000000 
9.888194 15.157166 33.267733 179.859687 1.457536 -130.809041 -6.354068 -25.297612 -73.685258 12.143224 24.925088 71.323149 1.746222 -18.916814 -36.721769 0.459200 -4.346900 -12.054800 7.867900 31.931620 -74.323334 -10.489421 -25.548917 67.476354 -5.997356 -0.666192 -48.104923 -3.366100 11.265300 -33.179900 1.063652 0.185982 -5.808294 -0.183871 0.138912 4.969266 8.956659 -2.824385 -10.913746 0.685800 -3.294800 -5.538100 -97.347241 -4.844851 26.078204 13.223653 -15.625355 -2.399023 -1.661136 1.043906 3.684502 -7.125000 0.000000 0.000000 95.018808 0.164138 17.388983 -15.519749 26.314208 -4.800736 1.014533 3.571410 0.977030 7.125000 0.000000 0.000000 
9.886991 15.082043 33.162102 179.748873 1.333159 -132.218491 -7.212543 -25.613861 -71.934601 12.444011 24.949457 72.147014 1.707047 -19.508199 -36.774188 0.501000 -4.537700 -12.594500 9.060382 31.887920 -72.324869 -10.800525 -25.600757 68.280435 -6.108086 -0.901170 -48.495640 -3.700500 11.750900 -34.856200 1.085572 0.053230 -5.763681 -0.227520 0.079275 4.164000 8.731011 -2.776846 -11.383455 0.598000 -3.322800 -5.790200 -97.573990 -4.809851 25.734989 12.965732 -15.164145 -2.281341 -1.680295 1.047674 4.024091 -7.125000 0.000000 0.000000 95.076489 0.308755 17.827899 -15.358252 26.040235 -4.702578 1.015929 3.533248 1.145318 7.125000 0.000000 0.000000 
9.873760 15.008561 33.064782 179.525075 0.809358 -133.251621 -7.701083 -26.432341 -70.719694 12.775759 25.007897 73.060401 1.655554 -20.093733 -36.807188 0.543600 -4.723500 -13.121700 10.135588 31.373589 -70.766042 -11.252924 -25.699159 69.440994 -6.260228 -0.606656 -48.836959 -3.770900 11.849200 -35.200500 1.095574 -0.273551 -5.473397 -0.602826 -0.354776 4.902423 9.037106 -2.463432 -11.275302 0.731700 -3.191700 -5.648300 -97.617537 -5.787738 25.110531 12.778170 -14.835346 -2.189483 -1.643670 1.048083 3.865370 -7.125000 0.000000 0.000000 95.317280 1.511151 18.055785 -15.096193 25.714895 -4.581898 1.069849 3.526724 1.402837 7.125000 0.000000 0.000000 
9.877149 14.931470 32.988019 179.253711 1.277887 -133.127215 -8.123932 -26.441121 -70.958528 13.178623 25.123728 74.163179 1.688939 -20.357713 -37.006546 0.588400 -4.911200 -13.655400 9.489481 31.492820 -71.105861 -11.631842 -25.831630 70.415650 -6.294247 -0.577881 -48.861155 -3.918100 12.050700 -35.911400 1.054018 -0.224218 -5.544465 -0.473887 -0.127076 4.716482 8.999833 -2.218722 -11.161581 0.686300 -3.068900 -5.556700 -97.853790 -5.945897 24.950078 12.547861 -14.439115 -2.094050 -1.701553 1.116289 4.714907 -7.125000 0.000000 0.000000 95.415245 1.986351 18.301927 -14.865523 25.376177 -4.467432 1.152963 3.536059 1.825075 7.125000 0.000000 0.000000 
9.879883 14.860174 32.916942 179.154635 1.526906 -132.926411 -8.197817 -26.441225 -71.335598 13.632973 25.250957 75.394452 1.727618 -20.629912 -37.225574 0.644800 -5.136800 -14.299200 9.044167 31.671993 -71.647353 -12.123143 -26.009741 71.690997 -6.357262 -0.800218 -49.049569 -4.072400 12.256200 -36.644300 1.031439 -0.277281 -5.583118 -0.479444 -0.133283 4.634726 8.900041 -2.693994 -12.206903 0.749100 -3.404600 -6.147000 -97.953139 -6.289637 24.794170 12.474889 -14.300855 -2.058133 -1.736652 1.120673 4.727273 -7.125000 0.000000 0.000000 95.536881 2.627947 18.741499 -14.729976 25.140989 -4.381758 1.167731 3.454057 2.007747 7.125000 0.000000 0.000000 
9.880102 14.792706 32.851880 179.342960 1.460380 -132.358918 -7.588352 -26.395501 -72.271553 14.136733 25.403624 76.742319 1.771721 -20.819331 -37.430625 0.653300 -5.170200 -14.394600 8.799864 31.903070 -72.657153 -12.648015 -26.211466 73.059443 -6.433787 -1.035126 -49.286880 -4.246300 12.481100 -37.455800 1.055736 -0.379852 -5.661694 -0.635380 -0.180637 4.948405 9.676840 -1.207901 -11.457541 0.708900 -0.728700 -5.686500 -97.962696 -6.581717 25.018428 12.622755 -14.536788 -2.113825 -1.714391 1.069969 3.894152 -7.125000 0.000000 0.000000 95.573728 3.231807 19.704553 -14.768411 25.197948 -4.390344 1.148841 3.399848 1.645608 7.125000 0.000000 0.000000 
9.890052 14.744046 32.739688 179.356512 2.091437 -132.456387 -8.135664 -25.994953 -71.793333 14.362388 25.424139 77.343969 1.866059 -20.838310 -37.731992 0.636400 -5.104100 -14.205800 8.451883 32.538265 -72.606417 -13.019591 -26.305634 73.999806 -6.518777 -1.128685 -49.545666 -4.261200 12.500100 -37.525000 1.024745 -0.145847 -5.965895 -0.341639 0.026067 3.589111 9.451398 -1.918135 -11.694164 0.689100 -1.106000 -5.919400 -98.296317 -5.527601 26.340576 12.817879 -14.821145 -2.207037 -1.745950 1.025827 3.872565 -7.125000 0.000000 0.000000 95.406811 2.131763 20.789261 -15.295232 25.844556 -4.640155 1.118267 3.428775 0.778705 7.125000 0.000000 0.000000 
9.886116 14.717255 32.590536 179.277169 2.109168 -133.758797 -9.238041 -26.229038 -69.433552 14.384675 25.329445 77.415888 1.886921 -21.250299 -37.954582 0.613400 -5.012800 -13.945100 9.793772 32.571770 -70.044332 -12.988632 -26.192450 73.897779 -6.562235 -0.931408 -49.623501 -4.105000 12.298800 -36.797400 0.993396 -0.283580 -5.842070 -0.541520 -0.068334 3.452684 9.380385 -1.571646 -11.805727 0.613200 -0.949900 -5.936300 -98.261827 -5.460099 26.897461 13.012451 -15.131250 -2.297182 -1.738345 1.060301 3.788364 -7.125000 0.000000 0.000000 95.600376 2.084039 22.187806 -15.834783 26.546327 -4.910378 1.118618 3.420191 0.171302 7.125000 0.000000 0.000000 
